<svg xmlns:dc="http://purl.org/dc/elements/1.1/" xmlns:cc="http://creativecommons.org/ns#" xmlns:rdf="http://www.w3.org/1999/02/22-rdf-syntax-ns#" xmlns:svg="http://www.w3.org/2000/svg" xmlns="http://www.w3.org/2000/svg" xmlns:sodipodi="http://sodipodi.sourceforge.net/DTD/sodipodi-0.dtd" xmlns:inkscape="http://www.inkscape.org/namespaces/inkscape" version="1.1" x="0px" y="0px" viewBox="0 0 100 125"><g transform="translate(0,-952.36218)"><path d="M 49.223315,1029.2058 7.213316,976.77583 c -0.5451,-0.6856 -0.0046,-1.6253 0.7803001,-1.6253 l 13.4687989,0 c 0.4807,0 0.7243,0.1905 1.0253,0.4915 l 27.5159,34.33937 27.3238,-34.09937 c 0.42,-0.5109 0.6826,-0.7316 1.214,-0.7316 l 13.4722,0 c 0.9672,0 1.2315,1.1188 0.7803,1.6253 l -42.01,52.42997 c -0.3942,0.495 -1.1715,0.4869 -1.5606,0 z m 0.7803,-2.2244 39.9275,-49.83087 -11.0575,0 -28.0897,35.05527 c -0.4819,0.4819 -1.1242,0.4364 -1.5606,0 l -28.0897,-35.05527 -11.057499,0 z" style="text-indent:0;text-transform:none;direction:ltr;block-progression:tb;baseline-shift:baseline;color:#000000;enable-background:accumulate;" fill="#000000" fill-opacity="1" fill-rule="evenodd" stroke="none" marker="none" visibility="visible" display="inline" overflow="visible"/></g><text x="0" y="115" fill="#000000" font-size="5px" font-weight="bold" font-family="'Helvetica Neue', Helvetica, Arial-Unicode, Arial, Sans-serif">Created by alerma</text><text x="0" y="120" fill="#000000" font-size="5px" font-weight="bold" font-family="'Helvetica Neue', Helvetica, Arial-Unicode, Arial, Sans-serif">from the Noun Project</text></svg>