<svg xmlns="http://www.w3.org/2000/svg" data-name="Layer 1" viewBox="0 0 100 125" x="0px" y="0px"><title>BasicUI_50Icon_10px_grid</title><path d="M50,12.76c-24.85,0-45,15.21-45,34,0,7.83,3.52,15,9.42,20.79.09.21.19.4.27.62a11.25,11.25,0,0,1,.29,6,14.84,14.84,0,0,1-3.19,6.41A18.33,18.33,0,0,1,5,85.5a21.89,21.89,0,0,0,8.64,1.74l.93,0a25.76,25.76,0,0,0,10.68-2.85,29.06,29.06,0,0,0,8-6.12A57.82,57.82,0,0,0,50,80.69c24.85,0,45-15.21,45-34S74.85,12.76,50,12.76Zm0,62.94a52.71,52.71,0,0,1-15.29-2.22l-3-.91L29.6,74.85A23.91,23.91,0,0,1,23,79.92a21.4,21.4,0,0,1-6,2,19.47,19.47,0,0,0,2.91-6.81,16.17,16.17,0,0,0-.46-8.63,9.26,9.26,0,0,0-.36-.88l0-.09-.39-.91-.71-.69c-5.17-5-7.91-11-7.91-17.2,0-16,17.94-29,40-29s40,13,40,29S72.06,75.69,50,75.69Z"/><rect x="47.07" y="58.68" width="5.86" height="5.86"/><polygon points="44.91 34.83 47.11 55.61 52.89 55.61 55.09 34.83 55.09 30.46 44.91 30.46 44.91 34.83"/><text x="0" y="115" fill="#000000" font-size="5px" font-weight="bold" font-family="'Helvetica Neue', Helvetica, Arial-Unicode, Arial, Sans-serif">Created by Mani Cheng</text><text x="0" y="120" fill="#000000" font-size="5px" font-weight="bold" font-family="'Helvetica Neue', Helvetica, Arial-Unicode, Arial, Sans-serif">from the Noun Project</text></svg>